<?xml version="1.0" standalone="no"?>
<!DOCTYPE svg PUBLIC "-//W3C//DTD SVG 20010904//EN"
 "http://www.w3.org/TR/2001/REC-SVG-20010904/DTD/svg10.dtd">
<svg version="1.0" xmlns="http://www.w3.org/2000/svg"
 width="180.000000pt" height="180.000000pt" viewBox="0 0 180.000000 180.000000"
 preserveAspectRatio="xMidYMid meet">
<metadata>
Created by potrace 1.14, written by Peter Selinger 2001-2017
</metadata>
<g transform="translate(0.000000,180.000000) scale(0.100000,-0.100000)"
fill="#000000" stroke="none">
<path d="M741 1443 c-44 -88 -75 -230 -74 -343 2 -229 161 -396 425 -446 13
-2 34 -6 47 -9 13 -2 30 2 38 10 8 8 21 18 29 23 24 14 38 186 21 277 -22 124
-64 172 -215 246 -59 29 -113 59 -120 66 -7 7 -19 16 -26 20 -39 23 -105 145
-98 181 5 24 -8 12 -27 -25z"/>
<path d="M389 526 c-7 -7 2 -146 9 -146 4 0 7 34 7 75 1 67 -3 84 -16 71z"/>
<path d="M509 513 c-5 -77 -3 -143 6 -140 12 4 14 157 3 157 -4 0 -9 -8 -9
-17z"/>
<path d="M564 503 c6 -35 16 -74 23 -93 4 -8 6 -18 5 -22 -1 -3 6 -9 14 -12
12 -5 15 -2 10 10 -3 8 -14 44 -23 80 -17 63 -39 91 -29 37z"/>
<path d="M690 456 c0 -41 5 -78 10 -81 6 -4 10 23 10 74 0 47 -4 81 -10 81 -6
0 -10 -31 -10 -74z"/>
<path d="M870 450 c0 -47 4 -80 10 -80 6 0 10 33 10 80 0 47 -4 80 -10 80 -6
0 -10 -33 -10 -80z"/>
<path d="M1026 458 c2 -89 2 -90 12 -85 4 3 6 35 6 71 -2 83 -2 86 -12 86 -4
0 -7 -33 -6 -72z"/>
<path d="M1474 453 c1 -91 21 -107 21 -18 1 67 -4 95 -15 95 -4 0 -6 -35 -6
-77z"/>
<path d="M1670 456 c0 -41 5 -78 10 -81 6 -4 10 23 10 74 0 47 -4 81 -10 81
-6 0 -10 -31 -10 -74z"/>
<path d="M190 491 c-14 -35 -5 -87 16 -95 8 -3 12 -1 9 4 -12 19 -15 82 -5
101 6 10 7 19 2 19 -5 0 -15 -13 -22 -29z"/>
<path d="M323 506 c16 -40 18 -63 8 -89 -14 -37 4 -34 19 3 10 24 10 36 0 60
-13 32 -38 56 -27 26z"/>
<path d="M952 485 c-1 -21 3 -33 8 -30 12 8 13 65 2 65 -5 0 -9 -16 -10 -35z"/>
<path d="M1150 504 c0 -12 12 -30 26 -40 15 -10 37 -30 50 -44 13 -14 24 -20
24 -14 0 12 -30 46 -58 66 -10 7 -24 22 -30 33 -11 20 -11 20 -12 -1z"/>
<path d="M1282 500 c-18 -29 -14 -71 8 -100 l19 -25 -11 42 c-7 30 -7 51 0 73
12 34 3 40 -16 10z"/>
<path d="M1410 512 c0 -6 4 -13 9 -16 10 -7 9 -49 -3 -83 -11 -33 7 -28 22 6
14 32 8 74 -14 92 -9 8 -14 8 -14 1z"/>
<path d="M1553 490 c-2 -31 11 -41 21 -15 6 16 -2 45 -13 45 -3 0 -7 -14 -8
-30z"/>
<path d="M937 433 c-7 -10 21 -49 29 -40 3 3 -1 15 -9 27 -8 12 -17 18 -20 13z"/>
<path d="M1544 427 c3 -10 6 -22 6 -27 0 -4 7 -10 15 -14 21 -8 19 8 -6 35
-16 19 -19 20 -15 6z"/>
<path d="M1146 405 c4 -8 11 -15 16 -15 6 0 5 6 -2 15 -7 8 -14 15 -16 15 -2
0 -1 -7 2 -15z"/>
</g>
</svg>
